<mxfile host="app.diagrams.net" modified="2024-04-10T04:13:17.567Z" agent="Mozilla/5.0 (Macintosh; Intel Mac OS X 10_15_7) AppleWebKit/537.36 (KHTML, like Gecko) Chrome/123.0.0.0 Safari/537.36" etag="BiC1yrGQKDG6wzlU0Xxd" version="24.2.2" type="github">
  <diagram name="Page-1" id="ER7nCZykL6m58V0GdKzH">
    <mxGraphModel dx="1267" dy="917" grid="1" gridSize="10" guides="1" tooltips="1" connect="1" arrows="1" fold="1" page="1" pageScale="1" pageWidth="850" pageHeight="1100" math="0" shadow="0">
      <root>
        <mxCell id="0" />
        <mxCell id="1" parent="0" />
      </root>
    </mxGraphModel>
  </diagram>
</mxfile>
